# xmcd
#
# Track frame offsets: 
#        150
#        13324
#        27238
#        39997
#        52511
#        65372
#        80766
#        92632
#        104930
#        114096
#        128652
#        142538
#        154355
#        163973
#        173814
#        184944
#        197086
#        210001
#        222789
#        235974
#        246522
#
# Disc length: 3430 seconds
#
# Revision: 0
# Processed by: cddbd v1.5.2PL0 Copyright (c) Steve Scherf et al.
# Submitted via: ExactAudioCopyFreeDBPlugin 1.0
#
DISCID=1c0d6415
DTITLE=Little Walter - Confessin' The Blues (2013)
DYEAR=2013
DGENRE=Blues
TTITLE0=It Ain't Right
TTITLE1=Rocker
TTITLE2=I Got To Find My Baby
TTITLE3=Lights Out
TTITLE4=One More Chance With You
TTITLE5=Crazy Legs
TTITLE6=Temperature
TTITLE7=I Got To Go
TTITLE8=Crazy Mixed-Up World
TTITLE9=Quarter To Twelve
TTITLE10=Confessin' The Blues
TTITLE11=The Toddle
TTITLE12=Up The Line
TTITLE13=Rock Bottom
TTITLE14=Mean Old Frisco
TTITLE15=Too Late (bonus track)
TTITLE16=Fast Large One (bonus track)
TTITLE17=Boom, Boom Out Goes The Light (bonus track)
TTITLE18=Just A Feeling (bonus track)
TTITLE19=I Don't Play (bonus track)
TTITLE20=Just Your Fool (bonus track)
EXTD=
EXTT0=
EXTT1=
EXTT2=
EXTT3=
EXTT4=
EXTT5=
EXTT6=
EXTT7=
EXTT8=
EXTT9=
EXTT10=
EXTT11=
EXTT12=
EXTT13=
EXTT14=
EXTT15=
EXTT16=
EXTT17=
EXTT18=
EXTT19=
EXTT20=
PLAYORDER=
